<?xml version="1.0" encoding="UTF-8"?>
<svg id="Layer_1" data-name="Layer 1" xmlns="http://www.w3.org/2000/svg" viewBox="0 0 2754 1744">
  <defs>
    <style>
      .cls-1 {
        fill: #fff;
      }
    </style>
  </defs>
  <path class="cls-1" d="M2753.3,861.39v1.04c-1.22,11.91-59.65,28.75-67.88,29.76-15.93,1.96-31.49-.39-46.03,9.39-1.38.93-6.2-.75-7.46-1.56-8.88-5.72,54.84-25.59,49.86-30.4-5.95-5.74-97.45-4.03-111.36-3.61l-60.62,1.8c-11.67.35-22.84.5-34.59,1.53l-59.94,5.27c-12.59,1.11-24.01,4.88-36.56,5.66-38.23,2.39-75.42,6.01-113.48,12.65-7.8,1.36-81.2,9.65-85.73,9.58-7.99-.14-13.95,1.59-21.24,2.97-18.54,3.52-34.9,4.85-55.34,8.3-18.66,3.15-37.37,2.76-55.24,9.4-4.03-1.43-7.21-4.93-10.83-4.8l-23.71,9.67c-6.07,2.48-12.26,2.28-18.5,3.69l-27.81,6.31c4.86-1.1-48.25,8.44-41.89,7.78l-41.62,4.37-28.75,7.66c-8.69,2.32-15.05-.08-24.23,4.21-13.8,6.45-30.94,5.03-45.77,8.25l-29.55,6.42-77.49,14.59c-20.29,3.82-39.04,10.27-60.08,9.91-3.86-.06-7.33,4.12-11.18,4.61-16.93,2.14-32.5,6.55-49.04,11.14-15.65,4.35-32.08,5.33-47.81,11.68-3.87.67-8.94-3.68-12.58-1.9-3.35,1.63-4.48,6.04-7.38,8.79-33.7,5.79-49.5,31.02-71.09,44.49-13.41,8.37-24.75,19.63-38.52,26.96-8.75,4.66-14.89,9.95-22.47,15.78l-41.99,32.26c-19.85,15.25-40.68,27.58-60.54,43.39-6.27,4.99-13.83,8.87-20.07,13.72l-15.87,12.32c-19,14.74-37.51,28.96-57.04,43.19l-24.25,17.66-50.7,37.14c-10.63,7.79-21.52,14.6-32.86,21.39-27.22,16.28-54.03,36.03-78.47,48.9-15.42,8.12-28.79,17.65-43.14,27.03-8.55,5.59-17.43,10.23-25.7,16.41-6.81,5.09-15.66,6.19-21.91,10.72l-17.3,12.53-18.78,11.33-27.09,16.61c-10.11,6.2-21.5,10.23-30.53,16.84-11.51,8.43-23.08,14.64-34.86,21.98-6.97,4.35-12.28,9.39-21.12,10.97-1.67.3-2.98,4.01-5.1,3.59-1.27-.25-2.46-.79-4.53-2.84-1.52,8.84-20.74,16.91-29.69,22.38-1.35-2.78.31-5.98-3.12-7.55-2.39,5.13-2.2,11.01-7.52,13.81l-27.34,14.41c-7.38,3.89-14.9,5.61-22.21,10.09-7.8,4.79-20.31,3.53-27.57,8.88-10,7.38-20.13,9.16-31.42,13.4l-21.61,8.13c-10.58,3.98-20.22,5.6-31.42,8.85l-19.93,5.79c-19.97,5.8-14.61.82-39.74,8.81-9.16,2.91-39.06,9.84-48.67,11.11-10.23,1.35-18.9,1.55-28.43,6.55-3.38,1.78-9.2-2.34-12.82-.94-12.91,5-25.64,7.02-38.58.89l-32.6,21.45c-8.78,5.78-20.26,7.92-28.6,14.34-9.16,7.05-40.86,22.85-51.37,26.66l-29.06,10.55c-11.83,4.29-21.97,5.7-34.54,6.42-11.77.68-23.01,5.44-35.32,2.26-12.12-3.13-55.33-17.08-64.05-23.84l-18.04-13.99c-5.7-4.42-7.86-12.2-12.95-17.23,1.79-4.2,4.18-5.79,4.55-11.07-15.49-3.6-26.64-20.36-23.25-36.91.98-4.79,14.67-.77,13.89,3.81-1.5,8.74-.07,16.56,8.33,20.54,10.32,4.9,12.01,13.51,15.79,23.11,2.32,5.88,8.5,12.69,8.89,19.92,10.41-2.66,15.16,4.34,22.26,7.59,13.83,6.32,31.18,3.89,45.97,7.53,15.39,3.79,28.1,4.8,42.92-2.14,10.84-5.07,24.22-4.59,35.88-7.98,9.16-2.66,15.64-9.77,24.12-13.52,25.2-11.13,32.42-12.71,54.65-27.29,11.33-7.43,23.71-12.67,33.78-22.87l-39.64-40.7c-3.55-3.64-3.64-16.67.87-19.2,7.86-4.4,9.19-11.26,12.71-18.13,16.17-31.61,40.78-56.35,68.34-77.79,15.03-11.69,29.03-22.35,44.6-33.08,7.06-4.86,12.86-10.66,20.57-15.61l101.82-65.32,44.56-26.02c20.42-11.92,40.49-22.23,61.42-32.93l35.52-18.16,35.86-18.91c12.34-6.51,41.08-43.45,58.36-58.76,6.86-6.07,11.15-13.93,17.46-20.46l31.5-32.6,38.87-41.04,46.04-48.04c16.77-17.5,27.31-27.33,42.62-45.28,22.62-26.52,45.97-50.84,69.38-76.84l40.73-45.26,44.94-47.35,57.08-62.44,32.18-31.78c15.76-15.57,101.91-101.41,118.82-92.57,3.15,1.65,8.15,5.66,7.56,11.17-2.02,18.65-8.75,35.53-18.4,51.34-1.67,2.74-1.85,6.61,1.1,8.87,8.48-8.74,15-18.53,20.22-29.23,4.84-9.92,11.4-17.73,17.51-26.66l32.66-47.73,35.69-50.48c6.46-9.13,26.13-37.77,30.63-42.99,13.92-16.12,25.52-32.77,38.9-49.28l16.2-19.98,19.05-20.78c9.66-10.53,16.85-22.47,26.81-32.98l38.77-40.9c14.02-14.79,24.66-31.12,38.21-46.19,9.36-10.4,17.71-20.28,27.53-30.19l49.95-50.42c18.23-18.4,34.45-36.88,54.69-53.47,23.22-19.03,42.29-40.93,64.38-61.3,18.69-17.23,38.54-31.62,58.82-47.04,9.7-7.38,19.42-13.24,28.75-21.53,11.02-9.8,23.51-17.63,35.7-26.18,18.63-13.07,37.08-25.03,58.19-33.56,5.03-2.03,10.21-1.53,14.48-5.82,3.95-3.97,11.27-1.71,15.82-4.26,27.49-15.4,48.61,5.29,48.84,12.3.17,5.19.61,13.73-5.57,14.43-4.98.56-5.75-7.92-8.94-9.49-9.41-4.63-21.1-1.33-30.8,2.53-31.51,12.51-61.37,26.86-88.02,47.77-16.79,13.17-34.29,24.08-50.24,37.98-8.81,7.67-16.99,14.39-26.52,21.18-19.26,13.72-35.29,30-52.85,45.22-7.9,6.84-13.58,13.95-20.79,21.35l-15.81,16.24c-5.98,6.15-16.89,8.56-21.47,16.4-5.07,8.67-12.59,13.84-18.95,21.02-16.74,18.91-19.81,16.38-34.57,37.2-16.72,23.57-23.8,25.61-40.22,42.19-6.95,7.02-10.85,16.5-19.61,22.28s-13.57,14.58-19.85,22.41c-5.6,6.99-11.84,13.23-17.72,20.01l-15.81,18.24c-10.67,12.31-22.03,22.88-32.09,35.84-5.67,7.31-13.54,12.05-17.94,20.55-3.16,6.11-35.05,43.43-41.98,51.27l-24.18,27.38c-8.07,9.14-11.87,18.86-20.6,28.16-5.65,6.01-7.93,16.81-13.93,24.1-10.32,12.54-20.76,24.55-29.83,37.9-4.54,6.68-6.89,13.84-12.07,20.13-16.91,20.53-45.16,64.39-59.28,88.28-5.11,8.64-11.05,15.63-15.95,24.22l-29.17,51.22-41.14,72.47c-16.35,28.8-51.84,92.29-63.89,120.53-3.42,8.02-4.61,14.36-5.17,23.37s-7.55,16.52-11.11,24.27c-3.09,6.74-10.55,8.35-16.79,4.04-3.71-2.57-5.66-9.21-1.93-14.7,4.73-6.95,5.16-14.77,7.88-22.34,2.39-6.67,24.72-69.32,24.58-69.02l10.42-22.46c3.29-7.09,3.15-13.75,5.99-21.01,6.34-16.22,13.66-31.52,20.84-47.55l10.03-22.43c3.99-8.92,8.45-17.96,13.58-25.86,7.56-11.65,8.54-24.28,13.73-36.67,2.42-5.77,34.66-71.45,28.47-71.65-.83-.03-4.08-1.26-4.87-.25-9.02,11.58-22.48,17.39-33.13,26.8l-36.89,32.58c-9.66,8.53-15.55,20.53-27.2,27.42-3.97,2.35-8.3,10.31-11.67,13.87l-25.37,26.87c-7.09,7.51-15.52,14-21.93,21.62s-10.77,13.98-17.93,20.77l-14.52,13.78c-3.32,3.15-7.57,8.91-10.44,12.79-8.51,11.54-18.08,19.98-27.89,30.36l-28.13,29.77c-2.86,3.03-6.2,2.98-10.18,1.69,5.61,16-12.89,16.97-34.14,47.58-5.22,7.52-11.18,12.44-17.33,19.07l-32.8,35.31c-5.74,6.18-13.55,10.18-18.61,17.35-11.66,16.51-26.58,28.97-40.13,43.48-17.34,18.58-18.65,34.06-33.34,27.11,1.14,4.55,2.73,8.36-.51,11.33l-18.77,17.22c2.14-1.96-35.23,41.96-44.9,49.23-3.99,3-7.64,7.01-9.49,12.66,9.15-6.45,19.51-7.78,27.95-12.59,11.52-6.57,21.97-12.58,34.33-17.7l41.93-17.37c6.03-2.5,10.79-.85,13.27,3.56,1.63,2.9,2.71,9.06-2.27,11.22l-30.41,13.24c-54.47,23.71-29.63,4.65-34.43,6.29,1.1-.38,2.37-1.32,4.76-1.27,2.54-.93,3.03-3.67.29-2.84-4.31,2.95-11,1.54-11.89,6.69-.45,2.62.42,6.11-.5,8.28-.49,1.15-3.37,1.5-5.27,1.85-5.73,10.29-16.11,12.16-26.06,16.49l-23.88,10.4c-7.88,3.43-17.23,6.52-24.1,11.57-13.02,9.56-20.87,24-33.3,34.31-2.42,2.01-10.04,1.27-11.09,4.96-3.36,11.78-12.56,17.98-18.95,27.04-8.35,11.86-15.36,22.14-28.5,29.98-7.35,4.39-11.47,13.76-18.12,19.4-13.5,11.46-26.82,22.32-38.38,35.43-22.8,25.88-48.24,47.41-73.12,71.01l-39.15,37.14c-24.59,23.33-48,46.21-75.57,66.21-6.2,4.5-9.18,12.02-17.12,15.3-5.23,2.16-9.63,7.09-12.72,12.36l52.28-7.1c8.1-1.1,16.25-4.77,23.87-5.03,8.81-.3,15.55-2.26,24.04-4.64,7.7-2.16,16.08-.51,23.75-4.64,10.19-5.5,21.91-4.76,32.63-7.58,6.49-1.71,12.17-4.3,18.93-5.48,18.71-3.26,35.03-12.89,52.94-18.25,12.91-3.86,24.46-8.62,36.9-13.34,10.74-4.07,21.4-5.78,31.47-12.6,3.98-2.7,9.36-2.53,13.07-6.8,6.43-7.39,17.57-7.96,25.27-13.05,6.85-4.53,13.18-8,20.43-11.61l20.06-9.96,78.76-47.03c9.51-5.68,17.95-11.6,27.98-16.35,16.27-7.7,29.41-19.8,45.44-28.64,7.27-4,15.7-6.9,22.35-11.39,21.65-14.6,43.67-26.44,65.05-41.1l20.32-13.93c10.73-7.36,21.27-14.02,34.43-17.59,4.13-1.12,6.36-7.51,10.43-9.18,15.27-6.24,27.15-16.04,39.88-26.07,11.5-9.06,23.97-16.03,36.23-24.33,8.43-5.71,14.67-14.47,24.45-18.88,8.94-4.03,95.17-72.84,104.85-79.23l15.72-10.38,19.74-15.86,35.47-26.54c9.3-6.96,15.85-14.73,25.67-20.87,6.8-4.25,13.12-9.1,20.02-14.43l25.48-19.7c2.99-2.32,44.74-31.1,35.74-33.1-9.16,5.55-17.97,5.25-26.7,8.17-16.66,5.56-33.47,7.85-50.43,12.34-7.68,2.03-13.89,5.13-22.21,6.27-7.88,1.08-16.9,1.94-24.8,4.12-9,2.49-15.88,5.18-25.63,5.3-7.18.09-14.47,5.64-21.78,7.21-15.62,3.37-30.94,7.36-45.83,14-12.56,5.6-24.6,7.78-37.7,10.98-7.68,1.87-15.21,6.81-23.25,8.65l-38.03,8.69-23.69,9.8c-10.75,4.44-21.21,7.36-32.27,11.9l-15.41,6.32c-14.65,6.01-30.73,8.75-45.76,14.14l-34.82,12.49c-22.72,8.15-44.28,17.25-67.73,24.25-4.43,1.32-8.73-13.41-4.06-15.55,23.95-11.01,47.74-19.97,72.78-27.62,4.86-1.49,9.1-4.69,13.52-6.17l47.69-15.96c12.01-4.02,22.5-6.89,34.01-12.15,8.11-3.7,18.44-6.43,27.2-8.58,14.64-3.6,27.14-8.72,41.18-13.57l52.23-18.01,48.64-15.45c8.53-2.71,15.13-6.98,24.31-8.16,10.32-1.32,19.83-8.42,30.6-8.07,6.29.21,46.07-10.18,54.36-13.85,12.72-5.63,33.89-10.33,49.71-14.33l63.9-16.14c7.53-1.9,14.78-6.52,22.1-7.33,13.45-1.49,23.13-5.26,31.69-15.35,5.33-6.29,31.52-21.83,43.26-32.68l30.92-28.56c11.09-10.25,21.66-19.24,33.26-28.88l20.97-17.43c14.52-12.07,46.13-41.44,60.45-55.27l20.14-19.45c9.57-9.24,16.32-18.28,25.17-27.39,13.81-14.2,28.1-26.11,38.89-43.4,8.66-13.87,22.88-24.28,30.71-38.79,15.14-28.04,11.65-4.74,36.34-57.69l24.11-51.71c1.59-3.41,5.38-4.52,8.08-3.43s4.4,3.01,3.64,5.8c-2.01,7.31-10.19,5.81-11.74,12.37-.89,3.74,3.95,5.5,4.9,8.49,2.6,8.21-5.43,15.29-8.63,22.36-7.61,16.81-18.19,31.02-26.77,47.1-12.62,23.64-50.8,67.23-55.82,74.62l-8.94,13.12c-7.5,11.02-18.95,19.57-28.77,29.16l-28.38,27.74c-15.16,14.82-29.53,30.44-46.02,43.57-19.3,15.37-19.69,17.69-37.3,33.14l-70.07,61.49c-6.31,5.54-9.91,11.51-19.77,12.96-1.46.22-3.42,3.2-4.09,4.4-4.11,7.33,12.44,3.88,22.88-1.65,7.91-4.19,16.47-2.61,24.75-4.37l35.75-7.64c9.19-1.96,16.35-5.68,26.01-6.91,6.26-.8,13.32-2.4,19.79-3.95l30.16-7.21,22.1-3.85c12.72-2.22,23.17-6.07,36.45-6.66,27.41-1.22,31.95-8.89,49.47-11.65,15.83-2.49,31.28-5.12,47-6.6,11.67-1.1,21.52-6.51,32.49-8.76,14.24-2.91,28.34-5.7,42.8-7.47l48.69-5.96c8.44-1.03,16.34-5.72,25.31-4.67s16.55-2.22,24.76-2.59c45.29-2.04,44.74-16.65,93.35-18.38,13.54-.48,56.72-9.04,77.8-10.41,22.04-1.43,43.21-2.95,63.97-10.64,6.16-2.29,39.41.1,51.9-2.91,40.39-9.76,92.23-6.85,132.68-13.32,19.38-3.1,36.87-11.05,57.77-7.66,10.14,1.64,20.31-2.49,30.1-2.65l93.68-1.54c27.62-.46,90.73,1.86,116.59,6.65,11,2.04,19.15,4.88,23.42,16.12ZM1500.8,481.26l-5.04,5.56,3.97,3.6,5.04-5.56-3.97-3.6ZM1363.35,668.23c4.31-1.4,6.58-3.53,5.67-7.46-2.94,2.08-6.01,3.97-5.67,7.46ZM1278.41,797.3c-2.59,1.05-3.6,2.96-3.11,4.55.31,1.01,1.58,1.43,2.98,1.09,1.68-.41,1.47-6.18.13-5.64ZM1254.23,841.72c-8.97,5.05-10.62,14.74-10.75,23.59,6.3-6.26,13.15-13.4,10.75-23.59ZM1977.27,924.06c-5.25-1.78-7.96-2.02-10.11.07,4.08,1.34,7.25,1.35,10.11-.07ZM1809.11,954.35c-.64-8.17-20.88-.25-22.32,2.24,7.73,1.72,16.57,2.35,22.32-2.24ZM1725.2,969.86c-5.98-1.27-9.25-2.48-13.12,1.09,4.85,3.77,10.79,2.76,13.12-1.09ZM1701.24,973.92c-9.07-3.39-16.58-1.17-17.73,5.49,8.64.93,13.04-2.88,17.73-5.49ZM1665.09,981.47c-6.98-3.15-11.78-1.63-14.37,3.85,5.28,3.74,12.43,1.8,14.37-3.85ZM1433.66,1038.76c-6.96-1.26-12.95,2.83-16.99,8.02,6.99,2.67,13.29-.41,16.99-8.02ZM1400.62,1049.58c-3.42-1.28-7.4-1.49-7.51,1.28s3.77,2.3,4.97,1.98c1.13-.3,3.39-2.4,2.54-3.26ZM1371.07,1052.84l-8.82,5.29,2.29,3.82,8.82-5.29-2.29-3.82ZM1321.47,1072.1c.4-1.75-.83-3.99-3.18-3.43l-3.75.89c-2.14.51-4.41.94-5.02,2.92-.32,1.05.45,1.95,1.19,2.26,1.83.76,9.8,1.65,10.77-2.64ZM1265.03,1081.84c-3.07,3.23.06,3.16,1.4,3.18,2.99.05,3.67-1.75,2.83-3.17-.77-1.31-2.51-1.82-4.23-.01ZM1184.59,1107.61c-3.35-1.36-7.4-1.5-7.49,1.25s3.78,2.3,4.96,1.98,3.42-2.43,2.53-3.23ZM1141.03,1119.84c-3.07,3.23.06,3.16,1.4,3.18,2.99.05,3.67-1.75,2.83-3.17-.77-1.31-2.51-1.82-4.23-.01ZM1116.57,1129.62c0-1.94-1.57-3.52-3.52-3.52s-3.52,1.57-3.52,3.52,1.57,3.52,3.52,3.52,3.52-1.57,3.52-3.52ZM1070.65,1141.3l-4.45,3.95,3.62,4.08,4.45-3.95-3.62-4.08ZM1058.59,1150.3c-1.57-1.7-3.8-3.38-5.92-2.84s-3.24,2.6-7.31,4.6c4.09,1.45,9.23,2.27,13.24-1.75ZM999.76,1167.34c-1.81,2.15.21,4.19,2.35,3.63.74-.19.67-.93,2.18-1.96,1.12-.77,1.19-2.03-.1-2.05-1.83-.03-3.55-.66-4.43.38ZM965.28,1182.33c3.14-1.52,6.14-3.25,2.63-4.93-2.69,2-4.22,1.8-5.72,3.36s-.02,3.07,3.09,1.57ZM937.2,1191.7c-3.09-2.86-12.86.2-14.5,4.94,4.78,2.87,13.42.47,14.5-4.94ZM916.82,1201.04c3.98-10.6-13.83,2.39-15.75,3.28,5.68.6,10.39-.57,15.75-3.28ZM888.88,1205.8l-4.92,5.11,3.36,3.23,4.92-5.11-3.36-3.23ZM857.81,1222.51c4.11,1.17,4.97.07,6.53-1.49.61-.61,1.46-2.34-.72-2.01-2.49.77-5.67,1.69-5.8,3.49ZM834.85,1229.37l-8.45,4.47,2.47,4.68,8.45-4.47-2.47-4.68ZM719.46,1289.25c0-1.7-1.38-3.08-3.08-3.08s-3.08,1.38-3.08,3.08,1.38,3.08,3.08,3.08,3.08-1.38,3.08-3.08ZM695.87,1297.32c-5.05-1.23-9.9,3.68-10.08,4.77-.53,3.09,3,3.36,4.53,3.01,4.09-.94,7.21-7.38,5.55-7.78ZM311.77,1620.82c8.43,5.6,10.6,14.82,18.01,18.97,8.96-3.14,14.34-12.86,22.13-18,19.49-12.88,35.1-28.62,52.54-43.55,16.88-14.46,31.39-29.4,47.78-44.51l36.38-33.53c14.75-13.59,28.74-27.05,44.28-39.62,17.02-13.76,29.74-29.92,44.23-45.83,10-10.98,23.28-17.38,32.29-29.63,10.69-14.53,24.61-25.96,36.57-39.51,5.67-6.42,13.08-10.27,16.13-18.55l-31.56,15.38c-7.4,3.61-14.51,8.04-21.73,12.11l-36.02,20.3c-5.84,3.29-10.39,8.22-16.86,11.13-14.09,6.34-26.21,14.4-39.24,22.75-44.08,28.26-86.52,56.99-127.95,89.36-13.88,10.84-28.14,19.26-40.54,32.26-6.38,6.69-14.68,13.51-20.05,21.35-8.77,12.83-18.21,24.15-27.73,36.31-8.64,11.04,1.65,26.36,11.34,32.79Z"/>
  <path class="cls-1" d="M1389.54,859.71c-6.09,13.78-6.37,28.6-11.32,41.96-3.14,8.45-2.32,16.34-3.63,25.07-5.35,35.54,24.87,26.1,37.38,44.42-5.39,4.19-13.03,13.92-20.16,12.46-13.31-2.84-21.38-15.84-29.8-25.1-12.03-13.22-16.65-29.39-9.48-46.57,1.85-4.43.73-13.43,4.59-16.84,12.42-10.95,14.94-24.34,18.18-40.14.04-.21,15.92-28.22,14.46-42.24-.34-3.29,6.18-6.64,7.81-9.36,6.12-10.18,8.04-22.07,14.9-31.48,4.67-6.4,6.96-12.53,11.21-19.17l15.98-24.97c5.68-8.88,9.09-18.06,16.61-25.79,4.06-4.17,5.81-11.62,10.7-15.34,16.26-12.37,27.41-28.11,41.18-43.05,14.36-15.59,31.21-28.31,46.92-42.59,11.27-10.25,23.04-18.17,35.05-27.19l19.33-14.52c9.29-6.97,18.56-11.97,28.45-18.09,45.84-28.35,69.4-42.01,122.67-53.8,44.11-9.76,94.26-8.55,107.51,43.51l4.79,18.83c2.48,9.75,2.68,17.76-.98,27.87-1.37,3.79.32,13.21-6.44,12.45-14.96-24.86,5.15-17.2-5.98-37.07-5.38-9.61-6.18-21.2-14.33-30.09-8.41-9.18-22.33-16.5-35.41-16.57l-30.14-.17c-7.56-.04-15.86,4.46-23.78,6.03-15.94,3.16-30.69,9.85-45.57,15.41-8.94,3.34-60.71,32.21-68.36,37.83s-13.49,10.19-21.49,14.57c-15.54,8.51-27.22,22.17-41.63,32.12-7.75,5.36-14.26,10.5-21.24,17.1l-44.14,41.75c-17.82,16.85-34.63,34.77-48.12,55.25-5.29,8.04-9.79,15.2-15.89,22.66s-10.02,17.14-17.38,24.94c-6.23,6.6-20.22,38.41-28.42,53-5.71,10.17-8.92,21.36-14.02,32.9Z"/>
  <path class="cls-1" d="M63.94,1562.43c.08,13.6-35.57,9.79-40.31,38.37-.97,5.84,1.3,29.08-11.47,29.28-10.59.17-9.12-27.95-9.02-27.19-2.45-17.61,4.83-33.03,19.8-42.77,4.98-3.24,11.55-3.91,15.85,1.24,8.45,10.13,15.36-5.51,25.14,1.07Z"/>
  <path class="cls-1" d="M1371.57,855.68c-1.04,5.11-4.48,6-5.45,5.17-3.08-2.6.33-8.59,2.21-8.93,1.52-.27,3.94.38,3.25,3.75Z"/>
</svg>